G04 DipTrace 3.3.0.1*
G04 BottomSilk.gbr*
%MOIN*%
G04 #@! TF.FileFunction,Legend,Bot*
G04 #@! TF.Part,Single*
%ADD10C,0.009843*%
%ADD12C,0.003*%
%ADD55C,0.00772*%
%FSLAX26Y26*%
G04*
G70*
G90*
G75*
G01*
G04 BotSilk*
%LPD*%
X668154Y1594571D2*
D10*
X568074D1*
Y594532D1*
X668154D1*
Y1594571D1*
X2467367D2*
X2367286D1*
Y594532D1*
X2467367D1*
Y1594571D1*
X605081Y1700476D2*
D12*
X612581D1*
X605081Y1698976D2*
X612644D1*
X605081Y1697476D2*
X612895D1*
X605081Y1695976D2*
X613364D1*
X605081Y1694476D2*
X614601D1*
X605081Y1692976D2*
X616472D1*
X605081Y1691476D2*
X619298D1*
X605081Y1689976D2*
X622714D1*
X605081Y1688476D2*
X625651D1*
X605081Y1686976D2*
X627823D1*
X605081Y1685476D2*
X628490D1*
X605081Y1683976D2*
X628838D1*
X605081Y1682476D2*
X628994D1*
X605081Y1680976D2*
X614081D1*
X605081Y1679476D2*
X614081D1*
X605081Y1677976D2*
X614081D1*
X605081Y1676476D2*
X614081D1*
X605081Y1674976D2*
X614081D1*
X605081Y1673476D2*
X614081D1*
X605081Y1671976D2*
X614081D1*
X605081Y1670476D2*
X614081D1*
X605081Y1668976D2*
X614081D1*
X605081Y1667476D2*
X614081D1*
X605081Y1665976D2*
X614081D1*
X605081Y1664476D2*
X614081D1*
X605081Y1662976D2*
X614081D1*
X605081Y1661476D2*
X614081D1*
X605081Y1659976D2*
X614081D1*
X605081Y1658476D2*
X614081D1*
X605081Y1656976D2*
X614081D1*
X605081Y1655476D2*
X614081D1*
X605081Y1653976D2*
X614081D1*
X605081Y1652476D2*
X614081D1*
X605081Y1650976D2*
X614081D1*
X605081Y1649476D2*
X614081D1*
X605081Y1647976D2*
X614081D1*
X605081Y1646476D2*
X614081D1*
X605081Y1644976D2*
X614081D1*
X605081Y1643476D2*
X614081D1*
X605081Y1641976D2*
X614081D1*
X605081Y1640476D2*
X614081D1*
X605081Y1638976D2*
X614081D1*
X605081Y1637476D2*
X614081D1*
X605081Y1635976D2*
X614081D1*
X605081Y1634476D2*
X614081D1*
X605081Y1632976D2*
X614081D1*
X605081Y1631476D2*
X614081D1*
X605081Y1629976D2*
X614081D1*
X605081Y1628476D2*
X614081D1*
X605081Y1626976D2*
X614081D1*
X590081Y1625476D2*
X629081D1*
X590081Y1623976D2*
X629081D1*
X590081Y1622476D2*
X629081D1*
X590081Y1620976D2*
X629081D1*
X590081Y1619476D2*
X629081D1*
X590081Y1617976D2*
X629081D1*
X578858Y577184D2*
X590858D1*
X575461Y575684D2*
X594256D1*
X641858D2*
X649358D1*
X572653Y574184D2*
X597064D1*
X641858D2*
X649421D1*
X570438Y572684D2*
X599284D1*
X641858D2*
X649672D1*
X568651Y571184D2*
X601119D1*
X641858D2*
X650140D1*
X567203Y569684D2*
X602711D1*
X641858D2*
X651378D1*
X566058Y568184D2*
X580478D1*
X590558D2*
X604070D1*
X641858D2*
X653249D1*
X565119Y566684D2*
X577927D1*
X592882D2*
X605174D1*
X641858D2*
X656075D1*
X564291Y565184D2*
X575949D1*
X594687D2*
X606053D1*
X641858D2*
X659491D1*
X563556Y563684D2*
X574524D1*
X596013D2*
X606737D1*
X641858D2*
X662428D1*
X562936Y562184D2*
X573459D1*
X596990D2*
X607296D1*
X641858D2*
X664600D1*
X562404Y560684D2*
X572621D1*
X597714D2*
X607837D1*
X641858D2*
X665267D1*
X561874Y559184D2*
X571960D1*
X598288D2*
X608307D1*
X641858D2*
X665615D1*
X561413Y557684D2*
X571412D1*
X598834D2*
X608653D1*
X641858D2*
X665771D1*
X561115Y556184D2*
X570876D1*
X599300D2*
X608996D1*
X641858D2*
X650858D1*
X560912Y554684D2*
X570414D1*
X599595D2*
X609423D1*
X641858D2*
X650858D1*
X560653Y553184D2*
X570121D1*
X599752D2*
X609835D1*
X641858D2*
X650858D1*
X560266Y551684D2*
X569970D1*
X599873D2*
X610108D1*
X641858D2*
X650858D1*
X559871Y550184D2*
X569903D1*
X600092D2*
X610251D1*
X641858D2*
X650858D1*
X559605Y548684D2*
X569875D1*
X600461D2*
X610316D1*
X641858D2*
X650858D1*
X559465Y547184D2*
X569864D1*
X600850D2*
X610348D1*
X641858D2*
X650858D1*
X559401Y545684D2*
X569860D1*
X601113D2*
X610411D1*
X641858D2*
X650858D1*
X559374Y544184D2*
X569853D1*
X601252D2*
X610606D1*
X641858D2*
X650858D1*
X559364Y542684D2*
X569800D1*
X601316D2*
X610967D1*
X641858D2*
X650858D1*
X559360Y541184D2*
X569609D1*
X601342D2*
X611352D1*
X641858D2*
X650858D1*
X559359Y539684D2*
X569249D1*
X601353D2*
X611613D1*
X641858D2*
X650858D1*
X559358Y538184D2*
X568865D1*
X601356D2*
X611753D1*
X641858D2*
X650858D1*
X559358Y536684D2*
X568603D1*
X601358D2*
X611816D1*
X641858D2*
X650858D1*
X559358Y535184D2*
X568470D1*
X601358D2*
X611843D1*
X641858D2*
X650858D1*
X559358Y533684D2*
X568459D1*
X601358D2*
X611853D1*
X641858D2*
X650858D1*
X559358Y532184D2*
X568624D1*
X601358D2*
X611850D1*
X641858D2*
X650858D1*
X559358Y530684D2*
X568973D1*
X601358D2*
X611799D1*
X641858D2*
X650858D1*
X559358Y529184D2*
X569354D1*
X601358D2*
X611608D1*
X641858D2*
X650858D1*
X559358Y527684D2*
X569614D1*
X601358D2*
X611249D1*
X641858D2*
X650858D1*
X559358Y526184D2*
X569753D1*
X601358D2*
X610865D1*
X641858D2*
X650858D1*
X559358Y524684D2*
X569816D1*
X601352D2*
X610603D1*
X641858D2*
X650858D1*
X559364Y523184D2*
X569843D1*
X601300D2*
X610464D1*
X641858D2*
X650858D1*
X559417Y521684D2*
X569853D1*
X601109D2*
X610400D1*
X641858D2*
X650858D1*
X559608Y520184D2*
X569856D1*
X600749D2*
X610368D1*
X641858D2*
X650858D1*
X559967Y518684D2*
X569863D1*
X600365D2*
X610305D1*
X641858D2*
X650858D1*
X560352Y517184D2*
X569917D1*
X600097D2*
X610110D1*
X641858D2*
X650858D1*
X560619Y515684D2*
X570108D1*
X599905D2*
X609750D1*
X641858D2*
X650858D1*
X560811Y514184D2*
X570473D1*
X599651D2*
X609359D1*
X641858D2*
X650858D1*
X561066Y512684D2*
X570910D1*
X599259D2*
X609045D1*
X641858D2*
X650858D1*
X561457Y511184D2*
X571369D1*
X598812D2*
X608714D1*
X641858D2*
X650858D1*
X561905Y509684D2*
X571920D1*
X598349D2*
X608285D1*
X641858D2*
X650858D1*
X562367Y508184D2*
X572571D1*
X597791D2*
X607822D1*
X641858D2*
X650858D1*
X562920Y506684D2*
X573336D1*
X597087D2*
X607353D1*
X641858D2*
X650858D1*
X563565Y505184D2*
X574404D1*
X596096D2*
X606792D1*
X641858D2*
X650858D1*
X564271Y503684D2*
X575837D1*
X594777D2*
X606093D1*
X641858D2*
X650858D1*
X565055Y502184D2*
X579722D1*
X591148D2*
X605196D1*
X641858D2*
X650858D1*
X565993Y500684D2*
X585448D1*
X585615D2*
X604053D1*
X626858D2*
X665858D1*
X567159Y499184D2*
X602724D1*
X626858D2*
X665858D1*
X568553Y497684D2*
X601238D1*
X626858D2*
X665858D1*
X570284Y496184D2*
X599463D1*
X626858D2*
X665858D1*
X572589Y494684D2*
X597139D1*
X626858D2*
X665858D1*
X575549Y493184D2*
X594172D1*
X626858D2*
X665858D1*
X578858Y491684D2*
X590858D1*
X2404294Y1700476D2*
X2411794D1*
X2404294Y1698976D2*
X2411857D1*
X2404294Y1697476D2*
X2412108D1*
X2404294Y1695976D2*
X2412576D1*
X2404294Y1694476D2*
X2413813D1*
X2404294Y1692976D2*
X2415684D1*
X2404294Y1691476D2*
X2418511D1*
X2404294Y1689976D2*
X2421927D1*
X2404294Y1688476D2*
X2424864D1*
X2404294Y1686976D2*
X2427036D1*
X2404294Y1685476D2*
X2427703D1*
X2404294Y1683976D2*
X2428050D1*
X2404294Y1682476D2*
X2428206D1*
X2404294Y1680976D2*
X2413294D1*
X2404294Y1679476D2*
X2413294D1*
X2404294Y1677976D2*
X2413294D1*
X2404294Y1676476D2*
X2413294D1*
X2404294Y1674976D2*
X2413294D1*
X2404294Y1673476D2*
X2413294D1*
X2404294Y1671976D2*
X2413294D1*
X2404294Y1670476D2*
X2413294D1*
X2404294Y1668976D2*
X2413294D1*
X2404294Y1667476D2*
X2413294D1*
X2404294Y1665976D2*
X2413294D1*
X2404294Y1664476D2*
X2413294D1*
X2404294Y1662976D2*
X2413294D1*
X2404294Y1661476D2*
X2413294D1*
X2404294Y1659976D2*
X2413294D1*
X2404294Y1658476D2*
X2413294D1*
X2404294Y1656976D2*
X2413294D1*
X2404294Y1655476D2*
X2413294D1*
X2404294Y1653976D2*
X2413294D1*
X2404294Y1652476D2*
X2413294D1*
X2404294Y1650976D2*
X2413294D1*
X2404294Y1649476D2*
X2413294D1*
X2404294Y1647976D2*
X2413294D1*
X2404294Y1646476D2*
X2413294D1*
X2404294Y1644976D2*
X2413294D1*
X2404294Y1643476D2*
X2413294D1*
X2404294Y1641976D2*
X2413294D1*
X2404294Y1640476D2*
X2413294D1*
X2404294Y1638976D2*
X2413294D1*
X2404294Y1637476D2*
X2413294D1*
X2404294Y1635976D2*
X2413294D1*
X2404294Y1634476D2*
X2413294D1*
X2404294Y1632976D2*
X2413294D1*
X2404294Y1631476D2*
X2413294D1*
X2404294Y1629976D2*
X2413294D1*
X2404294Y1628476D2*
X2413294D1*
X2404294Y1626976D2*
X2413294D1*
X2389294Y1625476D2*
X2428294D1*
X2389294Y1623976D2*
X2428294D1*
X2389294Y1622476D2*
X2428294D1*
X2389294Y1620976D2*
X2428294D1*
X2389294Y1619476D2*
X2428294D1*
X2389294Y1617976D2*
X2428294D1*
X2378071Y577184D2*
X2390071D1*
X2374673Y575684D2*
X2393468D1*
X2441071D2*
X2448571D1*
X2371865Y574184D2*
X2396277D1*
X2441071D2*
X2448634D1*
X2369651Y572684D2*
X2398497D1*
X2441071D2*
X2448885D1*
X2367863Y571184D2*
X2400331D1*
X2441071D2*
X2449353D1*
X2366416Y569684D2*
X2401923D1*
X2441071D2*
X2450590D1*
X2365271Y568184D2*
X2379691D1*
X2389770D2*
X2403283D1*
X2441071D2*
X2452461D1*
X2364331Y566684D2*
X2377140D1*
X2392095D2*
X2404386D1*
X2441071D2*
X2455287D1*
X2363503Y565184D2*
X2375162D1*
X2393900D2*
X2405265D1*
X2441071D2*
X2458704D1*
X2362768Y563684D2*
X2373737D1*
X2395226D2*
X2405950D1*
X2441071D2*
X2461641D1*
X2362149Y562184D2*
X2372672D1*
X2396203D2*
X2406509D1*
X2441071D2*
X2463812D1*
X2361617Y560684D2*
X2371833D1*
X2396927D2*
X2407050D1*
X2441071D2*
X2464479D1*
X2361086Y559184D2*
X2371173D1*
X2397501D2*
X2407520D1*
X2441071D2*
X2464827D1*
X2360626Y557684D2*
X2370625D1*
X2398047D2*
X2407866D1*
X2441071D2*
X2464983D1*
X2360328Y556184D2*
X2370089D1*
X2398513D2*
X2408208D1*
X2441071D2*
X2450071D1*
X2360124Y554684D2*
X2369627D1*
X2398807D2*
X2408636D1*
X2441071D2*
X2450071D1*
X2359865Y553184D2*
X2369334D1*
X2398964D2*
X2409048D1*
X2441071D2*
X2450071D1*
X2359478Y551684D2*
X2369183D1*
X2399085D2*
X2409320D1*
X2441071D2*
X2450071D1*
X2359083Y550184D2*
X2369115D1*
X2399304D2*
X2409463D1*
X2441071D2*
X2450071D1*
X2358818Y548684D2*
X2369087D1*
X2399674D2*
X2409528D1*
X2441071D2*
X2450071D1*
X2358677Y547184D2*
X2369077D1*
X2400062D2*
X2409561D1*
X2441071D2*
X2450071D1*
X2358613Y545684D2*
X2369073D1*
X2400325D2*
X2409624D1*
X2441071D2*
X2450071D1*
X2358587Y544184D2*
X2369066D1*
X2400465D2*
X2409819D1*
X2441071D2*
X2450071D1*
X2358577Y542684D2*
X2369012D1*
X2400529D2*
X2410179D1*
X2441071D2*
X2450071D1*
X2358573Y541184D2*
X2368821D1*
X2400555D2*
X2410564D1*
X2441071D2*
X2450071D1*
X2358572Y539684D2*
X2368462D1*
X2400565D2*
X2410826D1*
X2441071D2*
X2450071D1*
X2358571Y538184D2*
X2368077D1*
X2400569D2*
X2410965D1*
X2441071D2*
X2450071D1*
X2358571Y536684D2*
X2367816D1*
X2400570D2*
X2411029D1*
X2441071D2*
X2450071D1*
X2358571Y535184D2*
X2367682D1*
X2400571D2*
X2411055D1*
X2441071D2*
X2450071D1*
X2358571Y533684D2*
X2367672D1*
X2400571D2*
X2411065D1*
X2441071D2*
X2450071D1*
X2358571Y532184D2*
X2367836D1*
X2400571D2*
X2411063D1*
X2441071D2*
X2450071D1*
X2358571Y530684D2*
X2368186D1*
X2400571D2*
X2411012D1*
X2441071D2*
X2450071D1*
X2358571Y529184D2*
X2368566D1*
X2400571D2*
X2410821D1*
X2441071D2*
X2450071D1*
X2358571Y527684D2*
X2368827D1*
X2400571D2*
X2410462D1*
X2441071D2*
X2450071D1*
X2358571Y526184D2*
X2368965D1*
X2400571D2*
X2410077D1*
X2441071D2*
X2450071D1*
X2358571Y524684D2*
X2369029D1*
X2400565D2*
X2409816D1*
X2441071D2*
X2450071D1*
X2358577Y523184D2*
X2369055D1*
X2400512D2*
X2409677D1*
X2441071D2*
X2450071D1*
X2358629Y521684D2*
X2369065D1*
X2400321D2*
X2409613D1*
X2441071D2*
X2450071D1*
X2358821Y520184D2*
X2369069D1*
X2399962D2*
X2409581D1*
X2441071D2*
X2450071D1*
X2359180Y518684D2*
X2369076D1*
X2399577D2*
X2409518D1*
X2441071D2*
X2450071D1*
X2359564Y517184D2*
X2369129D1*
X2399310D2*
X2409323D1*
X2441071D2*
X2450071D1*
X2359832Y515684D2*
X2369321D1*
X2399118D2*
X2408963D1*
X2441071D2*
X2450071D1*
X2360024Y514184D2*
X2369686D1*
X2398863D2*
X2408572D1*
X2441071D2*
X2450071D1*
X2360279Y512684D2*
X2370123D1*
X2398472D2*
X2408257D1*
X2441071D2*
X2450071D1*
X2360670Y511184D2*
X2370582D1*
X2398024D2*
X2407927D1*
X2441071D2*
X2450071D1*
X2361117Y509684D2*
X2371133D1*
X2397562D2*
X2407498D1*
X2441071D2*
X2450071D1*
X2361580Y508184D2*
X2371784D1*
X2397004D2*
X2407034D1*
X2441071D2*
X2450071D1*
X2362132Y506684D2*
X2372548D1*
X2396299D2*
X2406566D1*
X2441071D2*
X2450071D1*
X2362778Y505184D2*
X2373617D1*
X2395309D2*
X2406005D1*
X2441071D2*
X2450071D1*
X2363484Y503684D2*
X2375050D1*
X2393989D2*
X2405306D1*
X2441071D2*
X2450071D1*
X2364267Y502184D2*
X2378934D1*
X2390361D2*
X2404408D1*
X2441071D2*
X2450071D1*
X2365205Y500684D2*
X2384661D1*
X2384828D2*
X2403265D1*
X2426071D2*
X2465071D1*
X2366371Y499184D2*
X2401937D1*
X2426071D2*
X2465071D1*
X2367765Y497684D2*
X2400451D1*
X2426071D2*
X2465071D1*
X2369496Y496184D2*
X2398676D1*
X2426071D2*
X2465071D1*
X2371801Y494684D2*
X2396352D1*
X2426071D2*
X2465071D1*
X2374761Y493184D2*
X2393384D1*
X2426071D2*
X2465071D1*
X2378071Y491684D2*
X2390071D1*
X605081Y1700476D2*
Y1698976D1*
Y1697476D1*
Y1695976D1*
Y1694476D1*
Y1692976D1*
Y1691476D1*
Y1689976D1*
Y1688476D1*
Y1686976D1*
Y1685476D1*
Y1683976D1*
Y1682476D1*
Y1680976D1*
Y1679476D1*
Y1677976D1*
Y1676476D1*
Y1674976D1*
Y1673476D1*
Y1671976D1*
Y1670476D1*
Y1668976D1*
Y1667476D1*
Y1665976D1*
Y1664476D1*
Y1662976D1*
Y1661476D1*
Y1659976D1*
Y1658476D1*
Y1656976D1*
Y1655476D1*
Y1653976D1*
Y1652476D1*
Y1650976D1*
Y1649476D1*
Y1647976D1*
Y1646476D1*
Y1644976D1*
Y1643476D1*
Y1641976D1*
Y1640476D1*
Y1638976D1*
Y1637476D1*
Y1635976D1*
Y1634476D1*
Y1632976D1*
Y1631476D1*
Y1629976D1*
Y1628476D1*
Y1626976D1*
Y1625476D1*
X590081D1*
Y1623976D1*
Y1622476D1*
Y1620976D1*
Y1619476D1*
Y1617976D1*
X612581Y1700476D2*
X612644Y1698976D1*
X612895Y1697476D1*
X613364Y1695976D1*
X614601Y1694476D1*
X616472Y1692976D1*
X619298Y1691476D1*
X622714Y1689976D1*
X625651Y1688476D1*
X627823Y1686976D1*
X628490Y1685476D1*
X628838Y1683976D1*
X628994Y1682476D1*
X629081Y1680976D1*
X614081D1*
Y1679476D1*
Y1677976D1*
Y1676476D1*
Y1674976D1*
Y1673476D1*
Y1671976D1*
Y1670476D1*
Y1668976D1*
Y1667476D1*
Y1665976D1*
Y1664476D1*
Y1662976D1*
Y1661476D1*
Y1659976D1*
Y1658476D1*
Y1656976D1*
Y1655476D1*
Y1653976D1*
Y1652476D1*
Y1650976D1*
Y1649476D1*
Y1647976D1*
Y1646476D1*
Y1644976D1*
Y1643476D1*
Y1641976D1*
Y1640476D1*
Y1638976D1*
Y1637476D1*
Y1635976D1*
Y1634476D1*
Y1632976D1*
Y1631476D1*
Y1629976D1*
Y1628476D1*
Y1626976D1*
Y1625476D1*
X629081D1*
Y1623976D1*
Y1622476D1*
Y1620976D1*
Y1619476D1*
Y1617976D1*
X578858Y577184D2*
X575461Y575684D1*
X572653Y574184D1*
X570438Y572684D1*
X568651Y571184D1*
X567203Y569684D1*
X566058Y568184D1*
X565119Y566684D1*
X564291Y565184D1*
X563556Y563684D1*
X562936Y562184D1*
X562404Y560684D1*
X561874Y559184D1*
X561413Y557684D1*
X561115Y556184D1*
X560912Y554684D1*
X560653Y553184D1*
X560266Y551684D1*
X559871Y550184D1*
X559605Y548684D1*
X559465Y547184D1*
X559401Y545684D1*
X559374Y544184D1*
X559364Y542684D1*
X559360Y541184D1*
X559359Y539684D1*
X559358Y538184D1*
Y536684D1*
Y535184D1*
Y533684D1*
Y532184D1*
Y530684D1*
Y529184D1*
Y527684D1*
Y526184D1*
Y524684D1*
X559364Y523184D1*
X559417Y521684D1*
X559608Y520184D1*
X559967Y518684D1*
X560352Y517184D1*
X560619Y515684D1*
X560811Y514184D1*
X561066Y512684D1*
X561457Y511184D1*
X561905Y509684D1*
X562367Y508184D1*
X562920Y506684D1*
X563565Y505184D1*
X564271Y503684D1*
X565055Y502184D1*
X565993Y500684D1*
X567159Y499184D1*
X568553Y497684D1*
X570284Y496184D1*
X572589Y494684D1*
X575549Y493184D1*
X578858Y491684D1*
X590858Y577184D2*
X594256Y575684D1*
X597064Y574184D1*
X599284Y572684D1*
X601119Y571184D1*
X602711Y569684D1*
X604070Y568184D1*
X605174Y566684D1*
X606053Y565184D1*
X606737Y563684D1*
X607296Y562184D1*
X607837Y560684D1*
X608307Y559184D1*
X608653Y557684D1*
X608996Y556184D1*
X609423Y554684D1*
X609835Y553184D1*
X610108Y551684D1*
X610251Y550184D1*
X610316Y548684D1*
X610348Y547184D1*
X610411Y545684D1*
X610606Y544184D1*
X610967Y542684D1*
X611352Y541184D1*
X611613Y539684D1*
X611753Y538184D1*
X611816Y536684D1*
X611843Y535184D1*
X611853Y533684D1*
X611850Y532184D1*
X611799Y530684D1*
X611608Y529184D1*
X611249Y527684D1*
X610865Y526184D1*
X610603Y524684D1*
X610464Y523184D1*
X610400Y521684D1*
X610368Y520184D1*
X610305Y518684D1*
X610110Y517184D1*
X609750Y515684D1*
X609359Y514184D1*
X609045Y512684D1*
X608714Y511184D1*
X608285Y509684D1*
X607822Y508184D1*
X607353Y506684D1*
X606792Y505184D1*
X606093Y503684D1*
X605196Y502184D1*
X604053Y500684D1*
X602724Y499184D1*
X601238Y497684D1*
X599463Y496184D1*
X597139Y494684D1*
X594172Y493184D1*
X590858Y491684D1*
X641858Y575684D2*
Y574184D1*
Y572684D1*
Y571184D1*
Y569684D1*
Y568184D1*
Y566684D1*
Y565184D1*
Y563684D1*
Y562184D1*
Y560684D1*
Y559184D1*
Y557684D1*
Y556184D1*
Y554684D1*
Y553184D1*
Y551684D1*
Y550184D1*
Y548684D1*
Y547184D1*
Y545684D1*
Y544184D1*
Y542684D1*
Y541184D1*
Y539684D1*
Y538184D1*
Y536684D1*
Y535184D1*
Y533684D1*
Y532184D1*
Y530684D1*
Y529184D1*
Y527684D1*
Y526184D1*
Y524684D1*
Y523184D1*
Y521684D1*
Y520184D1*
Y518684D1*
Y517184D1*
Y515684D1*
Y514184D1*
Y512684D1*
Y511184D1*
Y509684D1*
Y508184D1*
Y506684D1*
Y505184D1*
Y503684D1*
Y502184D1*
Y500684D1*
X626858D1*
Y499184D1*
Y497684D1*
Y496184D1*
Y494684D1*
Y493184D1*
X649358Y575684D2*
X649421Y574184D1*
X649672Y572684D1*
X650140Y571184D1*
X651378Y569684D1*
X653249Y568184D1*
X656075Y566684D1*
X659491Y565184D1*
X662428Y563684D1*
X664600Y562184D1*
X665267Y560684D1*
X665615Y559184D1*
X665771Y557684D1*
X665858Y556184D1*
X650858D1*
Y554684D1*
Y553184D1*
Y551684D1*
Y550184D1*
Y548684D1*
Y547184D1*
Y545684D1*
Y544184D1*
Y542684D1*
Y541184D1*
Y539684D1*
Y538184D1*
Y536684D1*
Y535184D1*
Y533684D1*
Y532184D1*
Y530684D1*
Y529184D1*
Y527684D1*
Y526184D1*
Y524684D1*
Y523184D1*
Y521684D1*
Y520184D1*
Y518684D1*
Y517184D1*
Y515684D1*
Y514184D1*
Y512684D1*
Y511184D1*
Y509684D1*
Y508184D1*
Y506684D1*
Y505184D1*
Y503684D1*
Y502184D1*
Y500684D1*
X665858D1*
Y499184D1*
Y497684D1*
Y496184D1*
Y494684D1*
Y493184D1*
X583358Y569684D2*
X580478Y568184D1*
X577927Y566684D1*
X575949Y565184D1*
X574524Y563684D1*
X573459Y562184D1*
X572621Y560684D1*
X571960Y559184D1*
X571412Y557684D1*
X570876Y556184D1*
X570414Y554684D1*
X570121Y553184D1*
X569970Y551684D1*
X569903Y550184D1*
X569875Y548684D1*
X569864Y547184D1*
X569860Y545684D1*
X569853Y544184D1*
X569800Y542684D1*
X569609Y541184D1*
X569249Y539684D1*
X568865Y538184D1*
X568603Y536684D1*
X568470Y535184D1*
X568459Y533684D1*
X568624Y532184D1*
X568973Y530684D1*
X569354Y529184D1*
X569614Y527684D1*
X569753Y526184D1*
X569816Y524684D1*
X569843Y523184D1*
X569853Y521684D1*
X569856Y520184D1*
X569863Y518684D1*
X569917Y517184D1*
X570108Y515684D1*
X570473Y514184D1*
X570910Y512684D1*
X571369Y511184D1*
X571920Y509684D1*
X572571Y508184D1*
X573336Y506684D1*
X574404Y505184D1*
X575837Y503684D1*
X579722Y502184D1*
X585448Y500684D1*
X592358Y499184D1*
X587858Y569684D2*
X590558Y568184D1*
X592882Y566684D1*
X594687Y565184D1*
X596013Y563684D1*
X596990Y562184D1*
X597714Y560684D1*
X598288Y559184D1*
X598834Y557684D1*
X599300Y556184D1*
X599595Y554684D1*
X599752Y553184D1*
X599873Y551684D1*
X600092Y550184D1*
X600461Y548684D1*
X600850Y547184D1*
X601113Y545684D1*
X601252Y544184D1*
X601316Y542684D1*
X601342Y541184D1*
X601353Y539684D1*
X601356Y538184D1*
X601358Y536684D1*
Y535184D1*
Y533684D1*
Y532184D1*
Y530684D1*
Y529184D1*
Y527684D1*
Y526184D1*
X601352Y524684D1*
X601300Y523184D1*
X601109Y521684D1*
X600749Y520184D1*
X600365Y518684D1*
X600097Y517184D1*
X599905Y515684D1*
X599651Y514184D1*
X599259Y512684D1*
X598812Y511184D1*
X598349Y509684D1*
X597791Y508184D1*
X597087Y506684D1*
X596096Y505184D1*
X594777Y503684D1*
X591148Y502184D1*
X585615Y500684D1*
X578858Y499184D1*
X2404294Y1700476D2*
Y1698976D1*
Y1697476D1*
Y1695976D1*
Y1694476D1*
Y1692976D1*
Y1691476D1*
Y1689976D1*
Y1688476D1*
Y1686976D1*
Y1685476D1*
Y1683976D1*
Y1682476D1*
Y1680976D1*
Y1679476D1*
Y1677976D1*
Y1676476D1*
Y1674976D1*
Y1673476D1*
Y1671976D1*
Y1670476D1*
Y1668976D1*
Y1667476D1*
Y1665976D1*
Y1664476D1*
Y1662976D1*
Y1661476D1*
Y1659976D1*
Y1658476D1*
Y1656976D1*
Y1655476D1*
Y1653976D1*
Y1652476D1*
Y1650976D1*
Y1649476D1*
Y1647976D1*
Y1646476D1*
Y1644976D1*
Y1643476D1*
Y1641976D1*
Y1640476D1*
Y1638976D1*
Y1637476D1*
Y1635976D1*
Y1634476D1*
Y1632976D1*
Y1631476D1*
Y1629976D1*
Y1628476D1*
Y1626976D1*
Y1625476D1*
X2389294D1*
Y1623976D1*
Y1622476D1*
Y1620976D1*
Y1619476D1*
Y1617976D1*
X2411794Y1700476D2*
X2411857Y1698976D1*
X2412108Y1697476D1*
X2412576Y1695976D1*
X2413813Y1694476D1*
X2415684Y1692976D1*
X2418511Y1691476D1*
X2421927Y1689976D1*
X2424864Y1688476D1*
X2427036Y1686976D1*
X2427703Y1685476D1*
X2428050Y1683976D1*
X2428206Y1682476D1*
X2428294Y1680976D1*
X2413294D1*
Y1679476D1*
Y1677976D1*
Y1676476D1*
Y1674976D1*
Y1673476D1*
Y1671976D1*
Y1670476D1*
Y1668976D1*
Y1667476D1*
Y1665976D1*
Y1664476D1*
Y1662976D1*
Y1661476D1*
Y1659976D1*
Y1658476D1*
Y1656976D1*
Y1655476D1*
Y1653976D1*
Y1652476D1*
Y1650976D1*
Y1649476D1*
Y1647976D1*
Y1646476D1*
Y1644976D1*
Y1643476D1*
Y1641976D1*
Y1640476D1*
Y1638976D1*
Y1637476D1*
Y1635976D1*
Y1634476D1*
Y1632976D1*
Y1631476D1*
Y1629976D1*
Y1628476D1*
Y1626976D1*
Y1625476D1*
X2428294D1*
Y1623976D1*
Y1622476D1*
Y1620976D1*
Y1619476D1*
Y1617976D1*
X2378071Y577184D2*
X2374673Y575684D1*
X2371865Y574184D1*
X2369651Y572684D1*
X2367863Y571184D1*
X2366416Y569684D1*
X2365271Y568184D1*
X2364331Y566684D1*
X2363503Y565184D1*
X2362768Y563684D1*
X2362149Y562184D1*
X2361617Y560684D1*
X2361086Y559184D1*
X2360626Y557684D1*
X2360328Y556184D1*
X2360124Y554684D1*
X2359865Y553184D1*
X2359478Y551684D1*
X2359083Y550184D1*
X2358818Y548684D1*
X2358677Y547184D1*
X2358613Y545684D1*
X2358587Y544184D1*
X2358577Y542684D1*
X2358573Y541184D1*
X2358572Y539684D1*
X2358571Y538184D1*
Y536684D1*
Y535184D1*
Y533684D1*
Y532184D1*
Y530684D1*
Y529184D1*
Y527684D1*
Y526184D1*
Y524684D1*
X2358577Y523184D1*
X2358629Y521684D1*
X2358821Y520184D1*
X2359180Y518684D1*
X2359564Y517184D1*
X2359832Y515684D1*
X2360024Y514184D1*
X2360279Y512684D1*
X2360670Y511184D1*
X2361117Y509684D1*
X2361580Y508184D1*
X2362132Y506684D1*
X2362778Y505184D1*
X2363484Y503684D1*
X2364267Y502184D1*
X2365205Y500684D1*
X2366371Y499184D1*
X2367765Y497684D1*
X2369496Y496184D1*
X2371801Y494684D1*
X2374761Y493184D1*
X2378071Y491684D1*
X2390071Y577184D2*
X2393468Y575684D1*
X2396277Y574184D1*
X2398497Y572684D1*
X2400331Y571184D1*
X2401923Y569684D1*
X2403283Y568184D1*
X2404386Y566684D1*
X2405265Y565184D1*
X2405950Y563684D1*
X2406509Y562184D1*
X2407050Y560684D1*
X2407520Y559184D1*
X2407866Y557684D1*
X2408208Y556184D1*
X2408636Y554684D1*
X2409048Y553184D1*
X2409320Y551684D1*
X2409463Y550184D1*
X2409528Y548684D1*
X2409561Y547184D1*
X2409624Y545684D1*
X2409819Y544184D1*
X2410179Y542684D1*
X2410564Y541184D1*
X2410826Y539684D1*
X2410965Y538184D1*
X2411029Y536684D1*
X2411055Y535184D1*
X2411065Y533684D1*
X2411063Y532184D1*
X2411012Y530684D1*
X2410821Y529184D1*
X2410462Y527684D1*
X2410077Y526184D1*
X2409816Y524684D1*
X2409677Y523184D1*
X2409613Y521684D1*
X2409581Y520184D1*
X2409518Y518684D1*
X2409323Y517184D1*
X2408963Y515684D1*
X2408572Y514184D1*
X2408257Y512684D1*
X2407927Y511184D1*
X2407498Y509684D1*
X2407034Y508184D1*
X2406566Y506684D1*
X2406005Y505184D1*
X2405306Y503684D1*
X2404408Y502184D1*
X2403265Y500684D1*
X2401937Y499184D1*
X2400451Y497684D1*
X2398676Y496184D1*
X2396352Y494684D1*
X2393384Y493184D1*
X2390071Y491684D1*
X2441071Y575684D2*
Y574184D1*
Y572684D1*
Y571184D1*
Y569684D1*
Y568184D1*
Y566684D1*
Y565184D1*
Y563684D1*
Y562184D1*
Y560684D1*
Y559184D1*
Y557684D1*
Y556184D1*
Y554684D1*
Y553184D1*
Y551684D1*
Y550184D1*
Y548684D1*
Y547184D1*
Y545684D1*
Y544184D1*
Y542684D1*
Y541184D1*
Y539684D1*
Y538184D1*
Y536684D1*
Y535184D1*
Y533684D1*
Y532184D1*
Y530684D1*
Y529184D1*
Y527684D1*
Y526184D1*
Y524684D1*
Y523184D1*
Y521684D1*
Y520184D1*
Y518684D1*
Y517184D1*
Y515684D1*
Y514184D1*
Y512684D1*
Y511184D1*
Y509684D1*
Y508184D1*
Y506684D1*
Y505184D1*
Y503684D1*
Y502184D1*
Y500684D1*
X2426071D1*
Y499184D1*
Y497684D1*
Y496184D1*
Y494684D1*
Y493184D1*
X2448571Y575684D2*
X2448634Y574184D1*
X2448885Y572684D1*
X2449353Y571184D1*
X2450590Y569684D1*
X2452461Y568184D1*
X2455287Y566684D1*
X2458704Y565184D1*
X2461641Y563684D1*
X2463812Y562184D1*
X2464479Y560684D1*
X2464827Y559184D1*
X2464983Y557684D1*
X2465071Y556184D1*
X2450071D1*
Y554684D1*
Y553184D1*
Y551684D1*
Y550184D1*
Y548684D1*
Y547184D1*
Y545684D1*
Y544184D1*
Y542684D1*
Y541184D1*
Y539684D1*
Y538184D1*
Y536684D1*
Y535184D1*
Y533684D1*
Y532184D1*
Y530684D1*
Y529184D1*
Y527684D1*
Y526184D1*
Y524684D1*
Y523184D1*
Y521684D1*
Y520184D1*
Y518684D1*
Y517184D1*
Y515684D1*
Y514184D1*
Y512684D1*
Y511184D1*
Y509684D1*
Y508184D1*
Y506684D1*
Y505184D1*
Y503684D1*
Y502184D1*
Y500684D1*
X2465071D1*
Y499184D1*
Y497684D1*
Y496184D1*
Y494684D1*
Y493184D1*
X2382571Y569684D2*
X2379691Y568184D1*
X2377140Y566684D1*
X2375162Y565184D1*
X2373737Y563684D1*
X2372672Y562184D1*
X2371833Y560684D1*
X2371173Y559184D1*
X2370625Y557684D1*
X2370089Y556184D1*
X2369627Y554684D1*
X2369334Y553184D1*
X2369183Y551684D1*
X2369115Y550184D1*
X2369087Y548684D1*
X2369077Y547184D1*
X2369073Y545684D1*
X2369066Y544184D1*
X2369012Y542684D1*
X2368821Y541184D1*
X2368462Y539684D1*
X2368077Y538184D1*
X2367816Y536684D1*
X2367682Y535184D1*
X2367672Y533684D1*
X2367836Y532184D1*
X2368186Y530684D1*
X2368566Y529184D1*
X2368827Y527684D1*
X2368965Y526184D1*
X2369029Y524684D1*
X2369055Y523184D1*
X2369065Y521684D1*
X2369069Y520184D1*
X2369076Y518684D1*
X2369129Y517184D1*
X2369321Y515684D1*
X2369686Y514184D1*
X2370123Y512684D1*
X2370582Y511184D1*
X2371133Y509684D1*
X2371784Y508184D1*
X2372548Y506684D1*
X2373617Y505184D1*
X2375050Y503684D1*
X2378934Y502184D1*
X2384661Y500684D1*
X2391571Y499184D1*
X2387071Y569684D2*
X2389770Y568184D1*
X2392095Y566684D1*
X2393900Y565184D1*
X2395226Y563684D1*
X2396203Y562184D1*
X2396927Y560684D1*
X2397501Y559184D1*
X2398047Y557684D1*
X2398513Y556184D1*
X2398807Y554684D1*
X2398964Y553184D1*
X2399085Y551684D1*
X2399304Y550184D1*
X2399674Y548684D1*
X2400062Y547184D1*
X2400325Y545684D1*
X2400465Y544184D1*
X2400529Y542684D1*
X2400555Y541184D1*
X2400565Y539684D1*
X2400569Y538184D1*
X2400570Y536684D1*
X2400571Y535184D1*
Y533684D1*
Y532184D1*
Y530684D1*
Y529184D1*
Y527684D1*
Y526184D1*
X2400565Y524684D1*
X2400512Y523184D1*
X2400321Y521684D1*
X2399962Y520184D1*
X2399577Y518684D1*
X2399310Y517184D1*
X2399118Y515684D1*
X2398863Y514184D1*
X2398472Y512684D1*
X2398024Y511184D1*
X2397562Y509684D1*
X2397004Y508184D1*
X2396299Y506684D1*
X2395309Y505184D1*
X2393989Y503684D1*
X2390361Y502184D1*
X2384828Y500684D1*
X2378071Y499184D1*
X524269Y651655D2*
D55*
Y613409D1*
X526645Y606224D1*
X529077Y603847D1*
X533831Y601415D1*
X538639D1*
X543392Y603847D1*
X545769Y606224D1*
X548201Y613409D1*
Y618162D1*
X508830Y642039D2*
X504021Y644470D1*
X496836Y651600D1*
Y601415D1*
X2535019Y647718D2*
Y609472D1*
X2537395Y602287D1*
X2539827Y599910D1*
X2544580Y597478D1*
X2549389D1*
X2554142Y599910D1*
X2556519Y602287D1*
X2558951Y609472D1*
Y614225D1*
X2517148Y635725D2*
Y638102D1*
X2514771Y642910D1*
X2512395Y645287D1*
X2507586Y647663D1*
X2498024D1*
X2493271Y645287D1*
X2490895Y642910D1*
X2488463Y638102D1*
Y633348D1*
X2490895Y628540D1*
X2495648Y621410D1*
X2519580Y597478D1*
X2486086D1*
X1658416Y1460709D2*
X1636916D1*
X1629731Y1463141D1*
X1627299Y1465517D1*
X1624922Y1470270D1*
Y1475079D1*
X1627299Y1479832D1*
X1629731Y1482264D1*
X1636916Y1484640D1*
X1658416D1*
Y1434400D1*
X1641669Y1460709D2*
X1624922Y1434400D1*
X1609483Y1475024D2*
X1604675Y1477455D1*
X1597490Y1484585D1*
Y1434400D1*
X1858142Y1464646D2*
X1836642D1*
X1829457Y1467078D1*
X1827025Y1469454D1*
X1824649Y1474207D1*
Y1479016D1*
X1827025Y1483769D1*
X1829457Y1486201D1*
X1836642Y1488577D1*
X1858142D1*
Y1438337D1*
X1841395Y1464646D2*
X1824649Y1438337D1*
X1806778Y1476584D2*
Y1478961D1*
X1804401Y1483769D1*
X1802024Y1486146D1*
X1797216Y1488522D1*
X1787654D1*
X1782901Y1486146D1*
X1780525Y1483769D1*
X1778093Y1478961D1*
Y1474207D1*
X1780525Y1469399D1*
X1785278Y1462269D1*
X1809210Y1438337D1*
X1775716D1*
X1409323Y1460709D2*
X1387823D1*
X1380638Y1463141D1*
X1378206Y1465517D1*
X1375830Y1470270D1*
Y1475079D1*
X1378206Y1479832D1*
X1380638Y1482264D1*
X1387823Y1484640D1*
X1409323D1*
Y1434400D1*
X1392577Y1460709D2*
X1375830Y1434400D1*
X1355582Y1484585D2*
X1329329D1*
X1343644Y1465462D1*
X1336459D1*
X1331706Y1463085D1*
X1329329Y1460709D1*
X1326897Y1453524D1*
Y1448770D1*
X1329329Y1441585D1*
X1334082Y1436777D1*
X1341267Y1434400D1*
X1348452D1*
X1355582Y1436777D1*
X1357959Y1439209D1*
X1360391Y1443962D1*
X1193976Y1444961D2*
X1172476D1*
X1165291Y1447393D1*
X1162859Y1449769D1*
X1160483Y1454522D1*
Y1459331D1*
X1162859Y1464084D1*
X1165291Y1466516D1*
X1172476Y1468892D1*
X1193976D1*
Y1418652D1*
X1177229Y1444961D2*
X1160483Y1418652D1*
X1121112D2*
Y1468837D1*
X1145043Y1435399D1*
X1109174D1*
X846331Y1448898D2*
X824831D1*
X817646Y1451330D1*
X815214Y1453706D1*
X812838Y1458459D1*
Y1463268D1*
X815214Y1468021D1*
X817646Y1470453D1*
X824831Y1472829D1*
X846331D1*
Y1422589D1*
X829584Y1448898D2*
X812838Y1422589D1*
X768714Y1472774D2*
X792590D1*
X794967Y1451274D1*
X792590Y1453651D1*
X785405Y1456083D1*
X778275D1*
X771090Y1453651D1*
X766282Y1448898D1*
X763905Y1441713D1*
Y1436959D1*
X766282Y1429774D1*
X771090Y1424966D1*
X778275Y1422589D1*
X785405D1*
X792590Y1424966D1*
X794967Y1427398D1*
X797398Y1432151D1*
X2136454Y1460709D2*
X2114954D1*
X2107769Y1463141D1*
X2105337Y1465517D1*
X2102960Y1470270D1*
Y1475079D1*
X2105337Y1479832D1*
X2107769Y1482264D1*
X2114954Y1484640D1*
X2136454D1*
Y1434400D1*
X2119707Y1460709D2*
X2102960Y1434400D1*
X2058836Y1477455D2*
X2061213Y1482209D1*
X2068398Y1484585D1*
X2073151D1*
X2080336Y1482209D1*
X2085145Y1475024D1*
X2087521Y1463085D1*
Y1451147D1*
X2085145Y1441585D1*
X2080336Y1436777D1*
X2073151Y1434400D1*
X2070774D1*
X2063645Y1436777D1*
X2058836Y1441585D1*
X2056460Y1448770D1*
Y1451147D1*
X2058836Y1458332D1*
X2063645Y1463085D1*
X2070774Y1465462D1*
X2073151D1*
X2080336Y1463085D1*
X2085145Y1458332D1*
X2087521Y1451147D1*
X1999874Y1456772D2*
X1978375D1*
X1971189Y1459204D1*
X1968758Y1461580D1*
X1966381Y1466333D1*
Y1471142D1*
X1968758Y1475895D1*
X1971189Y1478327D1*
X1978375Y1480703D1*
X1999874D1*
Y1430463D1*
X1983128Y1456772D2*
X1966381Y1430463D1*
X1941380D2*
X1917448Y1480648D1*
X1950942D1*
X1023469Y1460709D2*
X1001969D1*
X994784Y1463141D1*
X992352Y1465517D1*
X989975Y1470270D1*
Y1475079D1*
X992352Y1479832D1*
X994784Y1482264D1*
X1001969Y1484640D1*
X1023469D1*
Y1434400D1*
X1006722Y1460709D2*
X989975Y1434400D1*
X962598Y1484585D2*
X969728Y1482209D1*
X972160Y1477455D1*
Y1472647D1*
X969728Y1467894D1*
X964975Y1465462D1*
X955413Y1463085D1*
X948228Y1460709D1*
X943475Y1455900D1*
X941098Y1451147D1*
Y1443962D1*
X943475Y1439209D1*
X945851Y1436777D1*
X953036Y1434400D1*
X962598D1*
X969728Y1436777D1*
X972160Y1439209D1*
X974536Y1443962D1*
Y1451147D1*
X972160Y1455900D1*
X967351Y1460709D1*
X960221Y1463085D1*
X950660Y1465462D1*
X945851Y1467894D1*
X943475Y1472647D1*
Y1477455D1*
X945851Y1482209D1*
X953036Y1484585D1*
X962598D1*
M02*
