M48
INCH
T01C0.0191
T02C0.0315
T03C0.0354
T04C0.042
%
T01
X+012795Y+010984
X+013898Y+012047
X+014803Y+012677
X+013622Y+013976
X+011220Y+013858
X+008858Y+013504
X+008031Y+010315
X+010197Y+007087
X+013898Y+007126
X+017756Y+011417
X+016929Y+013976
X+019724Y+014016
X+021811Y+012008
X+023031Y+012047
X+023583Y+016850
X+025276Y+016890
T02
X+022205Y+008898G85X+021811Y+008898
X+023071Y+007717G85X+023071Y+008110
X+022205Y+006929G85X+021811Y+006929
T03
X+025079Y+004488
X+025630Y+007047
X+025906Y+016890
X+007323Y+012913
X+004961Y+016181
T04
X+006181Y+015445
X+006181Y+014445
X+006181Y+013445
X+006181Y+012445
X+006181Y+011445
X+006181Y+010445
X+006181Y+009445
X+006181Y+008445
X+006181Y+007445
X+006181Y+006445
X+008701Y+005354
X+009701Y+005354
X+010701Y+005354
X+011701Y+005354
X+012701Y+005354
X+015370Y+005315
X+016370Y+005315
X+017370Y+005315
X+018370Y+005315
X+019370Y+005315
X+024173Y+006445
X+024173Y+007445
X+024173Y+008445
X+024173Y+009445
X+024173Y+010445
X+024173Y+011445
X+024173Y+012445
X+024173Y+013445
X+024173Y+014445
X+024173Y+015445
X+020236Y+016378
X+019236Y+016378
X+018236Y+016378
X+016929Y+016339
X+015929Y+016339
X+014929Y+016339
X+013622Y+016339
X+012622Y+016339
X+011622Y+016339
X+010276Y+016339
X+009276Y+016339
X+008276Y+016339
T00
M30
