G04 DipTrace 3.3.0.1*
G04 Bottom.gbr*
%MOIN*%
G04 #@! TF.FileFunction,Copper,L2,Bot*
G04 #@! TF.Part,Single*
G04 #@! TA.AperFunction,Conductor*
%ADD13C,0.031496*%
%ADD14C,0.007874*%
%ADD15R,0.051181X0.059055*%
G04 #@! TA.AperFunction,ComponentPad*
%ADD17C,0.059055*%
%ADD19R,0.07874X0.066929*%
%ADD20O,0.07874X0.066929*%
%ADD21O,0.110236X0.070866*%
%ADD22O,0.070866X0.110236*%
%ADD23R,0.066929X0.066929*%
%ADD24C,0.066929*%
%ADD25R,0.066929X0.07874*%
%ADD26O,0.066929X0.07874*%
G04 #@! TA.AperFunction,ViaPad*
%ADD27C,0.04*%
%FSLAX26Y26*%
G04*
G70*
G90*
G75*
G01*
G04 Bottom*
%LPD*%
X2181102Y1200787D2*
D13*
X1393701D1*
X1389764Y1204724D1*
X1019685Y708661D2*
X1385827D1*
X1389764Y712598D1*
X2303150Y1204724D2*
Y1271654D1*
X1858268D1*
X1849954D1*
X1692913D1*
X1484252D1*
X1480315Y1267717D1*
X1122047Y1385827D2*
Y1267717D1*
X1362205D1*
X1480315D1*
X1362205Y1397638D2*
Y1267717D1*
X1692913Y1397638D2*
Y1271654D1*
X1972441Y1401575D2*
Y1385827D1*
X1858268Y1271654D1*
X803150Y1031496D2*
Y1251969D1*
X818898Y1267717D1*
X903047D1*
X1122047D1*
X2149606Y1527559D2*
X2267717D1*
X2303150Y1492126D1*
Y1271654D1*
X1822835Y1531496D2*
Y1298773D1*
X1849954Y1271654D1*
X795276Y1527559D2*
Y1375488D1*
X903047Y1267717D1*
X1129921Y1515748D2*
Y1393701D1*
X1122047Y1385827D1*
X1775591Y1141732D2*
D14*
X2303150D1*
X2330709Y1114173D1*
Y1051181D1*
X2346457Y1035433D1*
X2417323D1*
Y1044488D1*
X1279528Y1098425D2*
Y1106299D1*
X2279528D1*
X2299213Y1086614D1*
Y972441D1*
X2327165Y944488D1*
X2417323D1*
X1669291Y1531496D2*
X1748031D1*
Y1566929D1*
X1759843Y1578740D1*
Y1696850D1*
X1775591Y1712598D1*
X2330709D1*
X2358268Y1685039D1*
X2003937Y1527559D2*
X2074803D1*
Y1566929D1*
X2118110Y1610236D1*
X2515748D1*
Y870079D1*
X2490157Y844488D1*
X2417323D1*
X2527559Y1688976D2*
Y1622047D1*
X2515748Y1610236D1*
X1275591Y1539370D2*
X1228346D1*
X1204724Y1515748D1*
Y1555118D1*
X1188976Y1570866D1*
X1102362D1*
X1082677Y1551181D1*
Y1370079D1*
X1062992Y1350394D1*
X885827D1*
X496063Y1618110D2*
Y1476378D1*
X527953Y1444488D1*
X618110D1*
X929134Y1539370D2*
X870079D1*
Y1527559D1*
Y1535433D1*
X834646Y1570866D1*
X759843D1*
X618110Y1429134D1*
Y1444488D1*
X1592913Y1633858D2*
Y1533071D1*
X1594488Y1531496D1*
X1350394Y1539370D2*
Y1545669D1*
X1262205Y1633858D1*
X1929134Y1527559D2*
Y1632283D1*
X1923622Y1637795D1*
X927559Y1633858D2*
Y1615748D1*
X1003937Y1539370D1*
D27*
X1279528Y1098425D3*
X1775591Y1141732D3*
X2181102Y1200787D3*
X1389764Y1204724D3*
X1019685Y708661D3*
X1389764Y712598D3*
X2303150Y1204724D3*
X1480315Y1267717D3*
X1122047Y1385827D3*
X1362205Y1397638D3*
X1692913D3*
X1972441Y1401575D3*
X803150Y1031496D3*
X885827Y1350394D3*
X2358268Y1685039D3*
X2527559Y1688976D3*
D17*
X2507874Y448819D3*
D19*
X618110Y1544488D3*
D20*
Y1444488D3*
Y1344488D3*
Y1244488D3*
Y1144488D3*
Y1044488D3*
Y944488D3*
Y844488D3*
Y744488D3*
Y644488D3*
D19*
X2417323Y1544488D3*
D20*
Y1444488D3*
Y1344488D3*
Y1244488D3*
Y1144488D3*
Y1044488D3*
Y944488D3*
Y844488D3*
Y744488D3*
Y644488D3*
D21*
X2200787Y889763D3*
Y692913D3*
D22*
X2307087Y791338D3*
D23*
X1937008Y531496D3*
D24*
X1837008D3*
X1737008D3*
X1637008D3*
X1537008D3*
D23*
X1270079Y535433D3*
D24*
X1170079D3*
X1070079D3*
X970079D3*
X870079D3*
D25*
X1692913Y1633858D3*
D26*
X1592913D3*
X1492913D3*
D25*
X2023622Y1637795D3*
D26*
X1923622D3*
X1823622D3*
D25*
X1362205Y1633858D3*
D26*
X1262205D3*
X1162205D3*
D25*
X1027559D3*
D26*
X927559D3*
X827559D3*
D17*
X2562992Y704724D3*
X2590551Y1688976D3*
X732283Y1291339D3*
X496063Y1618110D3*
D15*
X1669291Y1531496D3*
X1594488D3*
X1748031D3*
X1822835D3*
X1275591Y1539370D3*
X1350394D3*
X1204724Y1515748D3*
X1129921D3*
X795276Y1527559D3*
X870079D3*
X2149606D3*
X2074803D3*
X1929134D3*
X2003937D3*
X1003937Y1539370D3*
X929134D3*
M02*
